<mxfile host="Electron" modified="2024-03-14T23:01:28.585Z" agent="Mozilla/5.0 (Windows NT 10.0; Win64; x64) AppleWebKit/537.36 (KHTML, like Gecko) draw.io/22.1.16 Chrome/120.0.6099.109 Electron/28.1.0 Safari/537.36" etag="h5FxjYYjEktKdfLnzD8E" version="22.1.16" type="device">
  <diagram name="Page-1" id="4RPxKuGhNYjKcmrN8iO0">
    <mxGraphModel dx="1084" dy="1184" grid="1" gridSize="10" guides="1" tooltips="1" connect="1" arrows="1" fold="1" page="1" pageScale="1" pageWidth="850" pageHeight="1100" math="0" shadow="0">
      <root>
        <mxCell id="0" />
        <mxCell id="1" parent="0" />
        <mxCell id="GygblffgZ_tXMlH7zUHs-7" value="SELECT&amp;nbsp; *&amp;nbsp; FROM&amp;nbsp; books&amp;nbsp; WHERE&amp;nbsp; age &amp;gt; 33" style="text;html=1;align=center;verticalAlign=middle;resizable=0;points=[];autosize=1;strokeColor=none;fillColor=none;fontSize=35;" vertex="1" parent="1">
          <mxGeometry x="70" y="290" width="730" height="60" as="geometry" />
        </mxCell>
        <mxCell id="GygblffgZ_tXMlH7zUHs-8" value="" style="rounded=0;whiteSpace=wrap;html=1;fillColor=#432D57;strokeColor=#432D57;" vertex="1" parent="1">
          <mxGeometry x="80" y="342" width="140" height="10" as="geometry" />
        </mxCell>
        <mxCell id="GygblffgZ_tXMlH7zUHs-12" value="" style="rounded=0;whiteSpace=wrap;html=1;fillColor=#432D57;strokeColor=#432D57;" vertex="1" parent="1">
          <mxGeometry x="270" y="342" width="100" height="10" as="geometry" />
        </mxCell>
        <mxCell id="GygblffgZ_tXMlH7zUHs-13" value="" style="rounded=0;whiteSpace=wrap;html=1;fillColor=#432D57;strokeColor=#432D57;" vertex="1" parent="1">
          <mxGeometry x="503" y="342" width="130" height="10" as="geometry" />
        </mxCell>
        <mxCell id="GygblffgZ_tXMlH7zUHs-14" value="" style="rounded=0;whiteSpace=wrap;html=1;fillColor=#A36DD4;strokeColor=#A36DD4;" vertex="1" parent="1">
          <mxGeometry x="390" y="342" width="95" height="10" as="geometry" />
        </mxCell>
        <mxCell id="GygblffgZ_tXMlH7zUHs-16" value="" style="rounded=0;whiteSpace=wrap;html=1;fillColor=#A36DD4;strokeColor=#A36DD4;" vertex="1" parent="1">
          <mxGeometry x="232" y="342" width="20" height="10" as="geometry" />
        </mxCell>
        <mxCell id="GygblffgZ_tXMlH7zUHs-17" value="" style="rounded=0;whiteSpace=wrap;html=1;fillColor=#A36DD4;strokeColor=#A36DD4;" vertex="1" parent="1">
          <mxGeometry x="650" y="342" width="140" height="10" as="geometry" />
        </mxCell>
        <mxCell id="GygblffgZ_tXMlH7zUHs-20" style="edgeStyle=orthogonalEdgeStyle;rounded=0;orthogonalLoop=1;jettySize=auto;html=1;entryX=0.5;entryY=1;entryDx=0;entryDy=0;strokeColor=#432D57;strokeWidth=2;" edge="1" parent="1" source="GygblffgZ_tXMlH7zUHs-18" target="GygblffgZ_tXMlH7zUHs-8">
          <mxGeometry relative="1" as="geometry" />
        </mxCell>
        <mxCell id="GygblffgZ_tXMlH7zUHs-21" style="edgeStyle=orthogonalEdgeStyle;rounded=0;orthogonalLoop=1;jettySize=auto;html=1;entryX=0.5;entryY=1;entryDx=0;entryDy=0;strokeColor=#432D57;strokeWidth=2;" edge="1" parent="1" source="GygblffgZ_tXMlH7zUHs-18" target="GygblffgZ_tXMlH7zUHs-12">
          <mxGeometry relative="1" as="geometry" />
        </mxCell>
        <mxCell id="GygblffgZ_tXMlH7zUHs-22" style="edgeStyle=orthogonalEdgeStyle;rounded=0;orthogonalLoop=1;jettySize=auto;html=1;entryX=0.5;entryY=1;entryDx=0;entryDy=0;strokeColor=#432D57;strokeWidth=2;" edge="1" parent="1" source="GygblffgZ_tXMlH7zUHs-18" target="GygblffgZ_tXMlH7zUHs-13">
          <mxGeometry relative="1" as="geometry" />
        </mxCell>
        <mxCell id="GygblffgZ_tXMlH7zUHs-18" value="SQL Keywords / Syntax" style="rounded=0;whiteSpace=wrap;html=1;strokeColor=#432D57;fillColor=#432D57;fontColor=#FFFFFF;" vertex="1" parent="1">
          <mxGeometry x="230" y="490" width="180" height="60" as="geometry" />
        </mxCell>
        <mxCell id="GygblffgZ_tXMlH7zUHs-23" style="edgeStyle=orthogonalEdgeStyle;rounded=0;orthogonalLoop=1;jettySize=auto;html=1;entryX=0.5;entryY=1;entryDx=0;entryDy=0;strokeColor=#A36DD4;strokeWidth=2;" edge="1" parent="1" source="GygblffgZ_tXMlH7zUHs-19" target="GygblffgZ_tXMlH7zUHs-16">
          <mxGeometry relative="1" as="geometry">
            <Array as="points">
              <mxPoint x="630" y="460" />
              <mxPoint x="242" y="460" />
            </Array>
          </mxGeometry>
        </mxCell>
        <mxCell id="GygblffgZ_tXMlH7zUHs-24" style="edgeStyle=orthogonalEdgeStyle;rounded=0;orthogonalLoop=1;jettySize=auto;html=1;entryX=0.5;entryY=1;entryDx=0;entryDy=0;strokeColor=#A36DD4;strokeWidth=2;" edge="1" parent="1" source="GygblffgZ_tXMlH7zUHs-19" target="GygblffgZ_tXMlH7zUHs-14">
          <mxGeometry relative="1" as="geometry">
            <Array as="points">
              <mxPoint x="660" y="430" />
              <mxPoint x="438" y="430" />
            </Array>
          </mxGeometry>
        </mxCell>
        <mxCell id="GygblffgZ_tXMlH7zUHs-25" style="edgeStyle=orthogonalEdgeStyle;rounded=0;orthogonalLoop=1;jettySize=auto;html=1;entryX=0.5;entryY=1;entryDx=0;entryDy=0;strokeColor=#A36DD4;strokeWidth=2;" edge="1" parent="1" source="GygblffgZ_tXMlH7zUHs-19" target="GygblffgZ_tXMlH7zUHs-17">
          <mxGeometry relative="1" as="geometry">
            <Array as="points">
              <mxPoint x="720" y="460" />
              <mxPoint x="720" y="460" />
            </Array>
          </mxGeometry>
        </mxCell>
        <mxCell id="GygblffgZ_tXMlH7zUHs-19" value="Parameters / Data" style="rounded=0;whiteSpace=wrap;html=1;strokeColor=#A36DD4;fillColor=#A36DD4;" vertex="1" parent="1">
          <mxGeometry x="600" y="480" width="180" height="60" as="geometry" />
        </mxCell>
      </root>
    </mxGraphModel>
  </diagram>
</mxfile>
